<?xml version="1.0" standalone="no"?><!DOCTYPE svg PUBLIC "-//W3C//DTD SVG 1.1//EN" "http://www.w3.org/Graphics/SVG/1.1/DTD/svg11.dtd"><svg class="icon" width="32px" height="32.00px" viewBox="0 0 1024 1024" version="1.1" xmlns="http://www.w3.org/2000/svg"><path fill="#8a8a8a" d="M350.762667 191.317333c-12.437333 9.834667-23.978667 20.117333-34.410667 30.677334-10.112 10.24-19.925333 21.013333-29.354667 32.341333l32.832 27.264c8.576-10.346667 17.578667-20.224 26.88-29.610667 9.109333-9.237333 19.328-18.346667 30.528-27.221333l-26.453333-33.450667z m-90.090667 97.877334l35.221333 24.085333a369.749333 369.749333 0 0 0-37.269333 68.757333l-39.509333-16.106666a412.437333 412.437333 0 0 1 41.557333-76.714667z m-55.68 118.058666l41.130667 11.392a313.856 313.856 0 0 0-11.349334 75.925334l-42.666666-1.109334a356.48 356.48 0 0 1 12.885333-86.208z m-11.370667 129.856l42.474667-3.968c2.282667 24.32 7.338667 49.856 15.786667 76.544l-40.682667 12.885334a409.024 409.024 0 0 1-17.578667-85.461334z m32.661334 126.421334l39.338666-16.512a535.957333 535.957333 0 0 0 37.141334 71.978666l-36.416 22.229334a578.24 578.24 0 0 1-40.064-77.696z m63.957333 114.133333l34.944-24.448c7.68 10.965333 15.914667 22.08 24.746667 33.344 9.024 11.52 18.432 21.952 28.16 31.381333l-29.76 30.592a355.498667 355.498667 0 0 1-31.978667-35.648 802.346667 802.346667 0 0 1-26.112-35.2z m94.741333 101.696l24.981334-34.581333a268.757333 268.757333 0 0 0 73.344 37.504l-13.376 40.533333a311.466667 311.466667 0 0 1-84.949334-43.456z m131.413334 54.912l7.04-42.069333c28.032 4.693333 56.064 4.906667 82.816 1.365333l5.589333 42.304c-30.784 4.053333-63.082667 3.84-95.445333-1.6z m142.293333-8.192c32.149333-9.322667 61.482667-23.445333 86.016-41.216l-25.045333-34.56c-20.202667 14.656-45.013333 26.730667-72.832 34.773333l11.882666 41.002667z m121.450667-73.28a165.376 165.376 0 0 0 26.133333-39.914667c8.810667-19.242667 13.184-35.84 14.229333-50.624l-42.56-2.986666c-0.618667 8.554667-3.285333 20.16-10.453333 35.861333a122.88 122.88 0 0 1-19.456 29.589333l32.106667 28.074667z m29.44-141.376l-37.802667 19.818667c-5.077333-9.685333-12.8-19.52-24.256-32.938667a1824 1824 0 0 0-4.608-5.354667c-9.898667-11.52-21.909333-25.472-32.576-41.024l35.2-24.128c9.216 13.461333 19.541333 25.472 29.504 37.077334 13.290667 15.445333 25.92 30.144 34.517333 46.570666z m-87.488-130.666667l-40.704 12.8a214.186667 214.186667 0 0 1-9.642667-64.853333c0-18.24 1.664-35.370667 4.672-51.52l41.941333 7.808a238.378667 238.378667 0 0 0-3.925333 43.712c0 19.690667 2.858667 36.821333 7.658667 52.053333z m8.384-137.856l-39.68-15.637333c13.376-34.026667 32-61.866667 48.490666-85.077333l34.773334 24.746666c-16.042667 22.528-32.149333 46.933333-43.584 75.946667z m69.056-111.765333l-35.264-24c16.512-24.256 24.256-41.130667 25.002666-58.176l42.624 1.877333c-1.28 29.44-14.869333 54.613333-32.362666 80.298667z m25.749333-123.477333l-40.426667 13.653333a155.029333 155.029333 0 0 0-14.976-30.890667 119.552 119.552 0 0 0-21.546666-26.261333l28.693333-31.573333a162.218667 162.218667 0 0 1 29.248 35.562666c8.661333 14.144 14.869333 27.242667 19.008 39.509334z m-86.336-100.864L720.085333 145.066667c-20.138667-9.941333-44.458667-15.616-72.170666-16.832l1.856-42.624c32.298667 1.408 62.656 8.106667 89.173333 21.184z m-135.296-19.84l4.117333 42.474666c-26.325333 2.56-53.866667 8.448-81.408 17.173334l-12.906666-40.661334a441.450667 441.450667 0 0 1 90.197333-18.986666z m-133.525333 34.88l16.426666 39.381333a489.749333 489.749333 0 0 0-75.157333 39.253333l-23.018667-35.904a532.352 532.352 0 0 1 81.749334-42.730666z"  /><path fill="#8a8a8a" d="M720.661333 576c10.666667 38.016 33.322667 64.362667 54.4 88.874667 34.389333 40.042667 64.533333 75.114667 31.210667 148.010666-61.226667 133.952-334.378667 198.4-489.92 0C249.685333 727.850667 213.482667 648.533333 199.232 576h43.605333c13.866667 63.04 46.592 133.397333 107.093334 210.56 67.989333 86.72 160.554667 115.413333 243.157333 108.437333 85.418667-7.210667 152.128-51.2 174.378667-99.84 12.288-26.88 11.669333-42.133333 9.045333-52.010666-3.093333-11.712-10.773333-23.253333-25.813333-41.088a974.293333 974.293333 0 0 0-8.128-9.472c-22.933333-26.453333-53.866667-62.208-65.813334-116.586667h43.904z"  /></svg>